<?xml version="1.0" encoding="UTF-8"?>
<!DOCTYPE svg PUBLIC "-//W3C//DTD SVG 1.1//EN" "http://www.w3.org/Graphics/SVG/1.1/DTD/svg11.dtd">
<svg xmlns="http://www.w3.org/2000/svg" version="1.1" width="5613px" height="4084px"
    style="shape-rendering:geometricPrecision; text-rendering:geometricPrecision; image-rendering:optimizeQuality; fill-rule:evenodd; clip-rule:evenodd"
    xmlns:xlink="http://www.w3.org/1999/xlink">
    <g>
        <path style="opacity:0.998" fill="#b2b2b2"
            d="M 2783.5,-0.5 C 2793.17,-0.5 2802.83,-0.5 2812.5,-0.5C 2880.03,9.01903 2927.53,45.019 2955,107.5C 2968.58,144.717 2970.08,182.383 2959.5,220.5C 2950.25,249.517 2934.59,274.35 2912.5,295C 2913.79,295.49 2915.13,295.657 2916.5,295.5C 2918.8,473.335 2921.46,651.001 2924.5,828.5C 2924.33,859.175 2924.66,889.841 2925.5,920.5C 3122.5,921.446 3319.5,922.946 3516.5,925C 3408.82,985.174 3300.82,1044.84 3192.5,1104C 3136.83,1104.5 3081.17,1104.67 3025.5,1104.5C 3026.85,1754.17 3028.18,2403.83 3029.5,3053.5C 2893.38,3136.05 2749.04,3201.05 2596.5,3248.5C 2593.94,2533.83 2590.94,1819.16 2587.5,1104.5C 2534.17,1104.67 2480.83,1104.5 2427.5,1104C 2425.11,1102.81 2422.78,1101.64 2420.5,1100.5C 2312.19,1038.68 2203.53,977.342 2094.5,916.5C 2290.5,915.833 2486.5,915.167 2682.5,914.5C 2682.67,707.833 2682.5,501.166 2682,294.5C 2659.33,272.665 2643.5,246.665 2634.5,216.5C 2618.56,147.159 2636.56,88.326 2688.5,40C 2716.07,16.8655 2747.74,3.36551 2783.5,-0.5 Z" />
    </g>
    <g>
        <path style="opacity:0.999" fill="#000000"
            d="M 2634.5,216.5 C 2643.5,246.665 2659.33,272.665 2682,294.5C 2682.5,501.166 2682.67,707.833 2682.5,914.5C 2485.83,914.333 2289.17,914.5 2092.5,915C 2093.04,915.717 2093.71,916.217 2094.5,916.5C 2203.53,977.342 2312.19,1038.68 2420.5,1100.5C 2382.08,1127.73 2344.92,1156.73 2309,1187.5C 2308.5,1615.5 2308.33,2043.5 2308.5,2471.5C 1941.47,2522.65 1574.47,2573.98 1207.5,2625.5C 1207.83,2158.17 1207.5,1690.83 1206.5,1223.5C 982.241,1299.36 757.907,1375.03 533.5,1450.5C 532.5,1363.84 532.167,1277.17 532.5,1190.5C 756.986,1112.5 981.32,1034 1205.5,955C 1206.82,945.729 1207.49,936.229 1207.5,926.5C 1207.17,917.167 1206.83,907.833 1206.5,898.5C 908.437,997.632 610.437,1096.97 312.5,1196.5C 309.145,1115.85 306.145,1035.18 303.5,954.5C 303.521,951.248 303.854,948.081 304.5,945C 604.758,840.136 905.092,735.469 1205.5,631C 1206.82,621.729 1207.49,612.229 1207.5,602.5C 1207.17,593.167 1206.83,583.833 1206.5,574.5C 804.143,713.174 401.81,851.841 -0.5,990.5C -0.5,901.833 -0.5,813.167 -0.5,724.5C 401.961,585.271 804.628,446.604 1207.5,308.5C 1207.5,277.833 1207.5,247.167 1207.5,216.5C 1683.17,216.5 2158.83,216.5 2634.5,216.5 Z" />
    </g>
    <g>
        <path style="opacity:0.997" fill="#000000"
            d="M 2959.5,220.5 C 3021.69,242.62 3084.03,264.454 3146.5,286C 3284.32,288.136 3422.16,289.97 3560,291.5C 3751.99,289.534 3913.99,357.534 4046,495.5C 4118.69,576.02 4168.86,669.186 4196.5,775C 4012.87,726.768 3826.03,702.268 3636,701.5C 3391.11,701.618 3153.94,743.952 2924.5,828.5C 2921.46,651.001 2918.8,473.335 2916.5,295.5C 2915.13,295.657 2913.79,295.49 2912.5,295C 2934.59,274.35 2950.25,249.517 2959.5,220.5 Z M 3832.5,471.5 C 3871.31,498.745 3909.98,526.245 3948.5,554C 3918.83,573.333 3889.17,573.333 3859.5,554C 3834.78,534.378 3824.61,508.878 3829,477.5C 3829.56,475.113 3830.73,473.113 3832.5,471.5 Z" />
    </g>
    <g>
        <path style="opacity:1" fill="#868686"
            d="M 2682.5,914.5 C 2486.5,915.167 2290.5,915.833 2094.5,916.5C 2093.71,916.217 2093.04,915.717 2092.5,915C 2289.17,914.5 2485.83,914.333 2682.5,914.5 Z" />
    </g>
    <g>
        <path style="opacity:0.998" fill="#000000"
            d="M 5612.5,3055.5 C 5612.5,3144.17 5612.5,3232.83 5612.5,3321.5C 5210.42,3459.71 4808.42,3598.21 4406.5,3737C 4404.51,3767.61 4403.85,3798.44 4404.5,3829.5C 3936.5,3829.5 3468.5,3829.5 3000.5,3829.5C 2888.5,3829.67 2776.5,3829.5 2664.5,3829C 2649.25,3823.52 2633.92,3818.36 2618.5,3813.5C 2567.3,3795.07 2515.97,3776.9 2464.5,3759C 2311.5,3757.27 2158.5,3755.6 2005.5,3754C 1820.68,3742.34 1667.85,3667.17 1547,3528.5C 1484.62,3452.59 1440.79,3366.76 1415.5,3271C 1467.81,3283.91 1520.48,3295.58 1573.5,3306C 1822.65,3352.69 2072.32,3355.69 2322.5,3315C 2415.45,3299.25 2506.78,3277.08 2596.5,3248.5C 2749.04,3201.05 2893.38,3136.05 3029.5,3053.5C 3125.8,2995.71 3216.96,2930.71 3303,2858.5C 3303.5,2430.5 3303.67,2002.5 3303.5,1574.5C 3670.44,1522.79 4037.44,1471.46 4404.5,1420.5C 4404.33,1887.83 4404.5,2355.17 4405,2822.5C 4629.59,2746.14 4854.43,2670.47 5079.5,2595.5C 5079.83,2682.07 5079.5,2768.57 5078.5,2855C 4854.09,2933.47 4629.76,3012.14 4405.5,3091C 4404.34,3109.76 4404.17,3128.59 4405,3147.5C 4703.4,3047.87 5001.9,2948.53 5300.5,2849.5C 5302.89,2930.01 5305.56,3010.51 5308.5,3091C 5308.17,3094.17 5307.83,3097.33 5307.5,3100.5C 5006.95,3205.63 4706.28,3310.46 4405.5,3415C 4404.34,3433.76 4404.17,3452.59 4405,3471.5C 4807.41,3332.53 5209.91,3193.86 5612.5,3055.5 Z M 1699.5,3477.5 C 1734.69,3476 1760.52,3490.67 1777,3521.5C 1783.49,3536.27 1785.49,3551.6 1783,3567.5C 1782.04,3572.19 1779.54,3573.69 1775.5,3572C 1738.93,3545.13 1702.1,3518.63 1665,3492.5C 1664.38,3491.55 1664.55,3490.72 1665.5,3490C 1676.16,3483.73 1687.5,3479.56 1699.5,3477.5 Z" />
    </g>
    <g>
        <path style="opacity:0.993" fill="#b2b2b2"
            d="M 2618.5,3813.5 C 2633.92,3818.36 2649.25,3823.52 2664.5,3829C 2776.5,3829.5 2888.5,3829.67 3000.5,3829.5C 2940.83,3914.17 2881.17,3998.83 2821.5,4083.5C 2820.83,4083.5 2820.17,4083.5 2819.5,4083.5C 2752.52,3993.52 2685.52,3903.52 2618.5,3813.5 Z" />
    </g>
</svg>