<svg width="40" height="40" viewBox="0 0 40 40" fill="none" xmlns="http://www.w3.org/2000/svg">
<circle cx="20" cy="20" r="19.5" stroke="#F8F8FA"/>
<path d="M30 20.0609C30 14.503 25.5242 10 20 10C14.4758 10 10 14.503 10 20.0609C10 25.0824 13.6569 29.2446 18.4375 30V22.9692H15.8972V20.0609H18.4375V17.8442C18.4375 15.3229 19.9294 13.9302 22.2145 13.9302C23.3089 13.9302 24.4532 14.1266 24.4532 14.1266V16.6012H23.1919C21.95 16.6012 21.5625 17.3769 21.5625 18.1724V20.0609H24.3359L23.8923 22.9692H21.5625V30C26.3431 29.2446 30 25.0824 30 20.0609Z" fill="#F8F8FA"/>
</svg>
