<svg width="40" height="40" viewBox="0 0 40 40" fill="none" xmlns="http://www.w3.org/2000/svg">
<circle cx="20" cy="20" r="19.5" stroke="#F8F8FA"/>
<path d="M20.0015 14.8723C17.1638 14.8723 14.8749 17.1617 14.8749 20C14.8749 22.8383 17.1638 25.1277 20.0015 25.1277C22.8392 25.1277 25.1281 22.8383 25.1281 20C25.1281 17.1617 22.8392 14.8723 20.0015 14.8723ZM20.0015 23.3337C18.1677 23.3337 16.6685 21.8387 16.6685 20C16.6685 18.1613 18.1632 16.6663 20.0015 16.6663C21.8398 16.6663 23.3345 18.1613 23.3345 20C23.3345 21.8387 21.8353 23.3337 20.0015 23.3337ZM26.5336 14.6625C26.5336 15.3275 25.9982 15.8585 25.3378 15.8585C24.673 15.8585 24.142 15.323 24.142 14.6625C24.142 14.002 24.6775 13.4665 25.3378 13.4665C25.9982 13.4665 26.5336 14.002 26.5336 14.6625ZM29.929 15.8764C29.8531 14.2742 29.4873 12.8551 28.3138 11.6858C27.1448 10.5166 25.726 10.1506 24.1242 10.0703C22.4733 9.97657 17.5252 9.97657 15.8743 10.0703C14.277 10.1462 12.8582 10.5121 11.6847 11.6814C10.5113 12.8506 10.1499 14.2698 10.0695 15.8719C9.97584 17.5232 9.97584 22.4724 10.0695 24.1236C10.1454 25.7258 10.5113 27.1449 11.6847 28.3142C12.8582 29.4834 14.2726 29.8494 15.8743 29.9297C17.5252 30.0234 22.4733 30.0234 24.1242 29.9297C25.726 29.8538 27.1448 29.4879 28.3138 28.3142C29.4828 27.1449 29.8487 25.7258 29.929 24.1236C30.0227 22.4724 30.0227 17.5276 29.929 15.8764ZM27.7963 25.8954C27.4482 26.7701 26.7745 27.4439 25.8955 27.7965C24.5793 28.3186 21.456 28.1982 20.0015 28.1982C18.547 28.1982 15.4192 28.3142 14.1075 27.7965C13.233 27.4484 12.5592 26.7745 12.2067 25.8954C11.6847 24.5788 11.8052 21.4549 11.8052 20C11.8052 18.5451 11.6892 15.4167 12.2067 14.1046C12.5548 13.2299 13.2285 12.5561 14.1075 12.2035C15.4237 11.6814 18.547 11.8019 20.0015 11.8019C21.456 11.8019 24.5838 11.6858 25.8955 12.2035C26.77 12.5516 27.4438 13.2255 27.7963 14.1046C28.3183 15.4212 28.1978 18.5451 28.1978 20C28.1978 21.4549 28.3183 24.5833 27.7963 25.8954Z" fill="#F8F8FA"/>
</svg>
