<svg width="40" height="40" viewBox="0 0 40 40" fill="none" xmlns="http://www.w3.org/2000/svg">
<path d="M28.125 13C29.1602 13 30 13.8394 30 14.875C30 15.4648 29.7227 16.0195 29.25 16.375L20.75 22.75C20.3047 23.082 19.6953 23.082 19.25 22.75L10.75 16.375C10.2779 16.0195 10 15.4648 10 14.875C10 13.8394 10.8395 13 11.875 13H28.125ZM18.5 23.75C19.3906 24.418 20.6094 24.418 21.5 23.75L30 17.375V25.5C30 26.8789 28.8789 28 27.5 28H12.5C11.1191 28 10 26.8789 10 25.5V17.375L18.5 23.75Z" fill="#F8F8FA"/>
<circle cx="20" cy="20" r="19.5" stroke="#F8F8FA"/>
</svg>
