<svg width="40" height="40" viewBox="0 0 40 40" fill="none" xmlns="http://www.w3.org/2000/svg">
<circle cx="20" cy="20" r="19.5" stroke="#F8F8FA"/>
<path d="M29.5816 15.2003C29.3516 14.3342 28.6739 13.6521 27.8134 13.4206C26.2537 13 19.9995 13 19.9995 13C19.9995 13 13.7454 13 12.1856 13.4206C11.3252 13.6521 10.6474 14.3342 10.4174 15.2003C9.99951 16.7701 9.99951 20.0454 9.99951 20.0454C9.99951 20.0454 9.99951 23.3208 10.4174 24.8906C10.6474 25.7567 11.3252 26.4104 12.1856 26.6419C13.7454 27.0625 19.9995 27.0625 19.9995 27.0625C19.9995 27.0625 26.2537 27.0625 27.8134 26.6419C28.6739 26.4104 29.3516 25.7567 29.5816 24.8906C29.9995 23.3208 29.9995 20.0454 29.9995 20.0454C29.9995 20.0454 29.9995 16.7701 29.5816 15.2003ZM17.954 23.0192V17.0717L23.1813 20.0455L17.954 23.0192Z" fill="#F8F8FA"/>
</svg>
